<?xml version="1.0" encoding="UTF-8"?>
<svg version="1.1" viewBox="0 0 2000 2000" width="1280" height="1280" xmlns="http://www.w3.org/2000/svg">
<path transform="translate(1131,296)" d="m0 0h68l25 2 14 1 33 6 18 5 17 5 19 8 11 6 11 8 10 10 20 8 22 9 19 10 17 10 20 14 11 9 13 12 11 14 7 8 7 11 10 14 6 10 10 18 4 7 12 23 12 25 10 25 9 23 5 14 19 10 11 8 11 10 10 13 6 12 4 15 2 9 2 28v19l-2 30-4 23-4 18-8 29-9 23-4 8-8 17-14 22-12 14-10 9-11 7-4 5-11 20-14 18-16 16-15 10-10 6-19 9-1 3 4 2 8 7 11 12 7 11 7 16 6 22 1 10v111l-1 20-4 26-6 25-7 21-9 20-9 15-8 11-9 10-7 8-11 9-11 8-25 13-11 4-3 7-6 26-12 36-11 26-8 15-10 16-8 11-9 11-10 9-5 4-7 4-9 12-7 9-12 14-7 8-16 16-11 9-10 8-17 12-23 14-23 11-19 8-30 9-12 3-26 4-28 2h-14l-28-2-24-4-23-6-12-4-16-6-29-14-24-16-9-7-15-13-18-18-9-11-9-12-14-22-13-25-6-14-12-36-4-14-19-8-8-4-18-3-21-3-17-2-37-5h-5l-12 15-11 7-7 3h-18l-12-4-5-2-7 1-10 3h-9l-10-3-8-3-13 3-11-1-9-6-10-13-5-12-2-10-10-2-19-2-13-4-7-5-7-9-6-14-12-32-10-26-8-23-9-26-11-32-5-17-8-26-8-27-4-14-16-60-6-24-6-26-5-22-5-23v-16l2-6 7-9 8-6 8-3 19-2h47l42 3 15 2 16 2 36 6 28 6 27 7 22 6 31 10 20 7 29 11 29 12 9 4h5l5-5 13-14 8-7 15-13 11-8 10-8 15-9 5-2-1-5-13-10-12-11-11-11-10-13-8-11-12-21-8-19-4-15-5-28-3-29-1-20v-45l1-24 3-29 6-39 4-20 6-25 9-32 10-30 15-36 8-16 4-6 7-6h2l2-5 10-17 12-18 12-16 9-11 11-12 11-11 8-7 16-13 17-11 14-8 23-11 11-4 25-7 9-3 18-10 19-8 18-6 25-6 24-4 22-3z" fill="#08266A"/>
<path transform="translate(878,463)" d="m0 0 4 1 21-1 9 2 1 29h1l1 6h1l1 18 8 7 13 8 12 6 21 5 5 1h44l25-4 19-4 17-5 8-1v-2l6-4 13-11 10-8 13-11 16-13 5-4h11l37 8 23 6 41 14 6 2-1 3 5 5h4l5 2 1-2 4 2-1 1 10 4 3 3 4 1v1h8l2 4 6 1-1 2 9 1 1 2-3 3-6 1v2l7 1 2 6 1 7 11 2 5 6 4 2 8 10 2 7 1 14 3 7 12 4 1 21 3 7 5-1 2 1v2h5v8l-3 8h-3l1 9 2 23h2l1 18v14l-1 1v13l1 9-2 7-1 2h-2l-2 8v7l5 2 1 3v8l-3 3-9 2-3 1v27l-8 3-5 3-2 4-1 18-3 7h-12l-2 12-3 3-10 2-2 6-2 7-12 3h-2v12l-7 3h-22l-3 10-2 4-7 2-22 1-2 12-3 2-5 1h-20l-4-4h-6l-5 2-19 1-4 1h-26l-3-1v-2l-7-1h-11l-1 3-2 1h-10l-13-1-3-2-4-11-13-2-12-1-4-2-1-8-12-5h-3v-3l-2-1v-2l-4-2v3l3 1-2 1v3l-3 2-5 5-4 2-2 3-3-1 1-2h2v-2h2l2-5 6-8 8-17 6-21 4-24 1-9v-9l-3-4h-7l-15 5-15 3-8 1h-20l-19-3-16-5-3-1h-7l-2 2v29l3 25-2 2v-10h-2l-1-13-1-1-1-8-3 6-4-2 4-1v-2l-18 5-6 2-2 2-14 4-15 3-8 3h-46l-3-4v-2l-17-1h-13l-1-4h-3l-1-2-7-1h-4l-2-4-9-4-6-2-6-7-1-3-8-5v-3h-2l-1-2-10-2-1 4-4-4v-3h2l1-6v-5l-2 1-3 5-4-1-2-5-1-7-2-1-1-8-5-3-2 8v43h-1l-1-7-1-20v-45l1-24 3-29 6-39 4-20 6-25 9-32 10-30 15-36 8-16 4-6 7-6h2l2-5 5-8 3 4 3-2h4v-2l5 1 4-3 7 1 5 2h4l3-3 4-1h9l3-1h14l1-7 1-1h7z" fill="#064896"/>
<path transform="translate(358,999)" d="m0 0h53l25 1 36 4 34 5 28 6 34 8 24 7 41 13 17 6 12 5 16 6 19 8 13 5 8 6 5 10 9 22 6 16 14 38 13 40 8 28 5 18 6 26 7 33 7 44 4 37 2 31v24l-4 7-5 3h-13l-126-17-11-2-6-15-3-19-5-12-8-9-10-4h-16l-12 6-8-10-8-5-6-2h-15l-12 5-7 7-5 10-13 3-8 6-5 10-2 9-19-2-13-2-6-4-3-4-5-13-7-18-6-15-8-23-6-16-7-20-18-54-8-25-7-24-7-25-4-15-7-24-7-29-6-25-11-49-3-12v-8l6-8 4-2z" fill="#CBD1E0"/>
<path transform="translate(944,365)" d="m0 0v3l-7 13v7l1 3 8 7 14 10 16 8 12 5 19 5 14 3 22 2h29l33-3 33-6 22-5 13-5 16-8 20-9 23-9 10-3 8-3 22-6 28-6 23-3h29l17 6 13 6 18 8 13 7 19 12 11 8 13 11 10 9 9 11 10 13 10 15 10 16 13 23 14 27 9 19 5 12 13 33 2 6v4l-14 5-12 8-12 11-11 14-10 16-9 16-11 25-6 17-6 19-4 17-3 11-5 30-2 20v40l2 20 5 22 8 18 7 9 9 8 9 4 5 1h33l-2 5-10 14-11 12-10 9-14 9-15 8-25 9-21 6-18 5-26 6-12 3-23 4-43 7-56 7-45 3-10 1-25 1h-56l-41-2-51-5-27-4-45-9-15-4-27-8-29-11-25-12-19-11-11-7-11-8-11-9-15-14-12-13-2-4 4 2 11 8 20 12 23 12 24 10 20 7 15 5 22 6 20 5 36 7 34 5 42 4 38 2h61l41-2 7-1 17-1 26-3 37-5 25-5 12-2 42-11 30-10 14-6 3-5 10-36 5-22 4-25 2-13 3-26 1-15v-62l-3-35-3-24-4-21-7-33-7-24-10-30-8-21-7-15 1-5 13-18 8-9 9-11 30-30 11-9 10-8 12-9h2l-1-6-6 1-14 9-14 10-16 12-13 12-8 7-18 18-1 2h-2l-2 4-9 10-4 6-6-2-22-11-22-10-24-10-15-6-38-13-14-4-31-8-24-5h-11l-13 11-10 8-11 9-14 12-10 8-5 2v2l-17 5-37 8-15 2h-44l-23-5-9-4-13-7-12-9-3-3-2-38-1-32-1-4-5-2h-6l-18 5-21 6-12 5-16 6-10 5h-2l2-5 12-16 8-10 12-14 13-13 11-9 17-13 22-13 17-8z" fill="#FBFCFC"/>
<path transform="translate(1028,1432)" d="m0 0 5 1 15 6 17 5 7 2 28 7 23 4 31 4 43 3 10 5 7 5 3 1v2h3l5 5 11 10 10 14 18 36 1 3h2l5 9 2 1v2h2v3l5 2 5 3-2 5-6 8h-2v2h-2l-1 4-6 7-5 5h-2l-2 4h-2l-2 4-4 4h-2l-2 4-8 7-4 3h-2l-1 3-7 5h-2v2l-9 6-1 2-7 3-7 5-14 7-19 10-24 9-17 5-20 5-22 3-10 1h-40l-24-3-16-3-16-4-8-3-18-6-25-12-9-6-9-5-3-2v-2l-4-1-4-3v-2l-4-1-7-5-25-25-9-11-11-15-14-23-6-12-5-11-7-18-4-13-3-12v-2l11 1h26l22-4 23-6 51-17 30-12 18-8 12-6 1-1 25-1z" fill="#43B7FB"/>
<path transform="translate(878,463)" d="m0 0 4 1 21-1 9 2 1 29h1l1 6h1l1 18 8 7 13 8 12 6 21 5 5 1h44l25-4 19-4 17-5 8-1v-2l6-4 13-11 10-8 13-11 16-13 5-4h11l37 8 23 6 41 14 6 2-1 3 5 5h4l5 2 1-2 4 2-1 1 10 4 3 3 4 1v1h8l2 4 6 1-1 2 9 1 1 2-3 3-6 1v2l7 1 2 6 1 7 11 2 5 6 4 2 8 10 2 7 1 14 3 7 12 4 1 21 3 7 5-1 2 1v2h5v8l-3 8h-3l1 9 2 23h2l1 18v14l-1 1v13l1 9-2 7-1 2h-2l-2 8v7l5 2 1 3v8l-3 3-9 2-3 1v27l-8 3-5 3-2 4-1 18-3 7h-12l-2 12-3 3-10 2-2 6-2 7-12 3h-2v12l-7 3h-22l-3 10-2 4-7 2-22 1-2 12-3 2-5 1h-20l-4-4h-6l-5 2-19 1-4 1h-26l-3-1v-2l-7-1h-11l-1 3-2 1h-10l-13-1-3-2-4-11-13-2-12-1-4-2-1-8-12-5h-3v-3l-2-1v-2l-4-2v3l3 1-2 1v3l-3 2-5 5-4 2-2 3-3-1 1-2h2v-2h2l2-5 6-8 8-17 5-15 2-1 2-13 2-7 5 2 1 4h2v2l9 1 5 3v3l-8-3-1 1 1 3 6 1 2 3h2l1-3 7-1 3 1v3l4 1 1 2 14 3v3l16 2 2 1h71l4 1 3-3 8-2 6-2 3-4 12-2 3-3 8-3 7-4 2-4 9-2 1-3 7-6 6-8 5-3 3-3v6l-3 6-8 2-5 6-2 5 3-1 4-6 3-2 8-2 2-6 1-2 4-2 3-5 1-3-5 2-3-1 5-6 3-8 9-3v2h-2l-2 4-2 3 7 1 1-6 3-7-4-3 2-9 4-1v-10l2-5 4-3 4-14 3-6v-8l-2-3v-50l2-3v-8l-4-1-1-11-1-4-3-1-3-13-3-2v-3h-3l-1-7 1-4-4-1-4-7-1-7-5-2-6-5-2-6-6-1-4-6-4-4-3-7-7-3-3-3-11-5-2-2-8-2-1-4-13-4-3-2-14-1-3-3-18-2-4-1h-40l-4 1h-12v2h-2l-1 3h-11l-4 3-13 4-2 2-13 1-2 3h-3v3l-11 1-14 4-5 1h-44l-1-2-5-3-5-1v-3h-15l-9-2-2-4-6-1-3-4 2-3-7-3v2h-2v2l-6 1-2-4-5-2-3-3v-2l-6 1v-2l-2-1 2-4-1-3h-2l1 5h-2v2h-4v-4h-10l-2-1v-2l-12-3-20-1-2-5-2-1h-17v-3l-9-1-5 1v3h-15l-4 2v3l-4 2-15 1-13 4-1 1h-5l-2-2-5 1-1 2-10 2-5-1-1 3h8l9-2-1 3-4 2h-4l-1 3-7 2-1 4-3 1-1-1-3 3h-4l-1-6 4-4h2v-2l-3-1 3-12 10-23 8-14 8-7h2l2-5 5-8 3 4 3-2h4v-2l5 1 4-3 7 1 5 2h4l3-3 4-1h9l3-1h14l1-7 1-1h7z" fill="#063077"/>
<path transform="translate(1023,1161)" d="m0 0h12l10 2 17 6 32 12 29 11 15 6 17 6 35 14 16 6 28 11 20 8 16 6 22 9 17 10 11 8 13 10 12 11 7 7 10 13 9 15 4 10 3 12 1 6v13l-3 16-5 13-10 10-5 4-9 6h-3v2l-3 2-9 3-8 3-12 3-9 3-19 3-17 3-19 1-8 1h-56l-28-2-17-2-3-1-19-2-7-2-17-3-27-7-12-4v-2l11-7 13-11 15-15 15-20 8-13 4-7 1-2v-38l-3-19-5-19-6-16-3-6-9-17-8-11-1-4-3-1-8-10-3-3v-2l-4-2-9-8-4-2-4-4-15-9-14-7-8-3v-2z" fill="#43B7FB"/>
<path transform="translate(1446,415)" d="m0 0 8 6 12 11 9 11 10 13 10 15 10 16 13 23 14 27 9 19 5 12 13 33 2 6v4l-14 5-12 8-12 11-11 14-10 16-9 16-11 25-6 17-6 19-4 17-3 11-5 30-2 20v40l2 20 5 22 8 18 7 9 9 8 9 4 5 1h33l-2 5-10 14-11 12-10 9-14 9-15 8-25 9-21 6-18 5-26 6-12 3-23 4-43 7-56 7-45 3-10 1-25 1h-56l-41-2-51-5-27-4-45-9-15-4-27-8-29-11-25-12-19-11-11-7-11-8-11-9-15-14-12-13-2-4 4 2 11 8 20 12 23 12 24 10 20 7 15 5 22 6 20 5 36 7 34 5 42 4 38 2h61l41-2 7-1 17-1 26-3 37-5 25-5 12-2 42-11 30-10 14-6 3-5 10-36 5-22 4-25 2-13 3-26 1-15 1-62 4-8 9-15 8-16 10-21 8-19 6-14 13-39 8-29 4-20 4-31v-26l-3-23-5-18-6-16-9-17-5-9-8-11-7-9v-2l-3-1-3-3z" fill="#C8DEF6"/>
<path transform="translate(845,1013)" d="m0 0 6 1 14 7 11 4 12 5 8 18 8 13 9 12 11 12 14 12 14 9 16 8 13 5 9 3 15 4 17 3 18 2h24l28-3 20-4 16-5 12-4 13-5 16-8 16-9 18-13 15-13 2-2 27-2 33-4 26-3 35-6h4l-2 4-10 15-8 16-7 19-4 16-2 16v24l4 23 6 18 5 10-2 5-6 7-8 7-11 8-4 2-7-1-19-8-16-6-25-10-16-6-25-10-17-6-9-4-17-6-9-4-16-6-18-7-20-7-18-7-18-6-11-2h-10l-21 4-20 7-8-1-15-3-9-1h-40l-19 2-29 6-22 7-17 7-16 8-13 9-9 8h-1v-8l5-32 2-7 3-18 5-20 9-29 8-20 12-26 11-18z" fill="#FBFBFC"/>
<path transform="translate(917,1166)" d="m0 0h24v8l3 5 11 8 18 10 12 8 16 12 11 10 11 14 4 7 6 12 12 42 6 20 8 14 9 8 11 5 11 4 6 1-2 4-10 14-12 13-9 9-12 9-16 9-14 5-5 1h-15l-10-4-8-6-6-10-1-3v-9l2-10 5-12 8-11 5-6v-6l-6-1-8 7-7 7-8 12-6 18-1 9-1 1-8 1h-17l-11-3-8-4-8-8-8-14v-13l4-15 8-16 11-18 9-11 7-8 10-8 6-4v-6l-1-1h-6l-10 6-12 11-9 9-13 17-8 13-8 17-4 14-1 9-6-1-9-6-5-5-6-8-4-12-1-7v-17l4-18 9-21 10-18 7-10h2l2-4 7-8 9-10 7-7 9-7v-5l-2-2-7 1-12 8-10 8-10 9-8 7-18 7-34 11-4 1h-9l-8-7-4-7v-11l5-10 9-10 14-9 16-8 21-8 21-6 23-4z" fill="#FBFCFC"/>
<path transform="translate(1435,1060)" d="m0 0h18l14 7 7 7 7 11 6 13 5 21 3 24 2 22v40l-1 22-4 26-3 17-9 28-7 16-10 17-10 13-12 13-14 11-15 9-16 7h-1l1-11v-13l-2-14-4-12-7-16-9-14-12-14-14-14-11-9-11-8-12-8 1-3 9-7 13-13 8-12 7-12 7-18 4-20 4-32 4-17 8-17 10-13 9-8 15-10 13-6z" fill="#FCFCFC"/>
<path transform="translate(801,1488)" d="m0 0 11 1h32l-4 1v2h-19l-3 1 5 13 10 19 8 14 10 14 11 14v2l4 2 12 12 2 1v2l4 2 11 9 17 11 16 8 16 7 8 2v2l8 1 25 5 23 2h16l17-1 15-2 32-8 24-9 18-8 3-2h3v-2l10-5 20-13 16-12 8-7h2v-2l8-7 6-5h2l2-4 4-4h2l2-4 11-12 1-2h2l2-4 9-11 1-7 4 5 16 33 1 3h2l5 9 2 1v2h2v3l5 2 5 3-2 5-6 8h-2v2h-2l-1 4-6 7-5 5h-2l-2 4h-2l-2 4-4 4h-2l-2 4-8 7-4 3h-2l-1 3-7 5h-2v2l-9 6-1 2-7 3-7 5-14 7-19 10-24 9-17 5-20 5-22 3-10 1h-40l-24-3-16-3-16-4-8-3-18-6-25-12-9-6-9-5-3-2v-2l-4-1-4-3v-2l-4-1-7-5-25-25-9-11-11-15-14-23-6-12-5-11-7-18-4-13-3-12z" fill="#3B9CEF"/>
<path transform="translate(1140,314)" d="m0 0h52l37 3 21 3 16 3 13 3 9 3 13 4 16 6 8 4v2h3v3l-15 1-29 5-25 6-20 6-15 5-11 4-11 5-6 1v2l-8 3-17 8h-3l-1 3-16 5-28 6-27 4-24 2h-28l-27-3-17-4-17-6-15-8-9-6-3-3 1-5 8-10 12-11 14-9 23-12 20-7 28-7 39-6z" fill="#43B7FB"/>
<path transform="translate(718,770)" d="m0 0 5 5 2-1v10l3 1 1 7 2 5 4-1 2-4h2l1 8-2 3h-2l2 5 2 1 1-3 11 1v3h2l1 3 7 4 3 6 5 5 9 3 6 3 1 4 7-1 5 2v2h3l1 3h14l16 2 3 5h47l7-3 21-4 2-2 7-2 2-2 21-5h2v2l-2 1 2 1 1-6 3 1 1 7 1 2v13h2l1 8 2 1 5 17 8 16 6 8 2 1v2l2 1-7-1-3-5v-2h-2v-4h-2l-3-7h-6l-1 5-5 3-13-1-18 1-5 2-2 10-3 2-11 1h-78l-3-2-2-7-2-2h2v-2h-13l-3-2-13-1-1-1h-10l-2-1-1-8v-2l-10-2-1-2h-21l-2-5v-8l-3-9v-10h-4v10l4 1v5l-2 4h-2l-3-6-1-4v-7h-2v23h-1l-5-28-1-8-1-24v-33z" fill="#063077"/>
<path transform="translate(1376,1352)" d="m0 0 2 2 1 6v13l-3 16-5 13-10 10-5 4-9 6h-3v2l-3 2-9 3-8 3-12 3-9 3-19 3-17 3-19 1-8 1h-56l-28-2-17-2-3-1-19-2-7-2-17-3-27-7-12-4v-2l11-7 13-11 15-15 6-8 2 1-1 3 19 5 25 5 37 5 24 2 13 1h38l27-2 24-4 19-5 13-5 10-5h3v-2l11-8 7-8z" fill="#3B9CEF"/>
<path transform="translate(1173,643)" d="m0 0h12l9 4 8 7 3 3v2h2l10 18 10 24 11 33 8 28 1 6-3 6-7 3-23 6-6-1-5-6-8-28-9-26-8-21h-3l-1 3 4 1 2 5v5l-2-3 1 5h-10v-4l2-2h-2l-17 33-10 22-5 4-9-1-23-10-4-5v-7l14-31 10-19 10-18 10-15 12-13 9-6z" fill="#43CDFC"/>
<path transform="translate(867,623)" d="m0 0 13 2 9 6 8 9 8 16 6 16 8 29 8 37v11l-6 5-23 4h-8l-5-3-4-16-8-34-7-23v-3l-4 4v5h2l-1 5-2 1v-2l-2-1-1-1h-2l-2 5-21 33-5 10-7 12-5 3h-6l-17-9-8-4-3-4v-8l10-19 16-27 18-27 9-11 9-10 10-7 7-3z" fill="#43CEFC"/>
<path transform="translate(753,1171)" d="m0 0 2 3 13 41 10 36 6 26 7 33 7 44 4 37 2 31v24l-4 7-5 3h-13l-126-17-11-2-6-15 1-4 1 1 41-1 26-4 15-4 10-4 11-6 11-9 4-5 6-10 3-8 3-16v-40l-2-30-4-36-3-22-3-16-3-17-3-15z" fill="#A5B6CE"/>
<path transform="translate(953,805)" d="m0 0h7l15 5 15 3 8 1h20l18-3 15-4 5-2h7l4 5v9l-3 23-6 25-6 15-6 11-6 8-1 2h-2v2l-10 7-9 4-7 1h-12l-9-2-10-5-4-3v-2l-4-2-6-8-8-17-5-19-3-22v-29z" fill="#43B6FB"/>
<path transform="translate(878,463)" d="m0 0 4 1 21-1 9 2 1 29h1l1 6h1l1 18 8 7 13 8 6 3 1 5h-2v2h-4v2h-3v-2l-2-1 2-4-1-3h-2l1 5h-2v2h-4v-4h-10l-2-1v-2l-12-3-20-1-2-5-2-1h-17v-3l-9-1-5 1v3h-15l-4 2v3l-4 2-15 1-13 4-1 1h-5l-2-2-5 1-1 2-10 2-5-1-1 3h8l9-2-1 3-4 2h-4l-1 3-7 2-1 4-3 1-1-1-3 3h-4l-1-6 4-4h2v-2l-3-1 3-12 10-23 8-14 8-7h2l2-5 5-8 3 4 3-2h4v-2l5 1 4-3 7 1 5 2h4l3-3 4-1h9l3-1h14l1-7 1-1h7z" fill="#063077"/>
<path transform="translate(911,1039)" d="m0 0 9 2 12 3 8 11 7 6 5 3v2l4 1 10 4h7v-6l-13-8-7-6v-1l8 1 18 3 16 3 27 4 28 3 26 2 26 1-3 3-10 4-13 4-17 3h-30l-21-3-5 1-1 7 10 1 6 2 14 2h40l21-5 19-7 14-9 2-2 63-1-5 5-15 10-11 6-17 8-14 5-7 3-15 4-19 4-18 2h-35l-27-4-21-6-14-6-15-8-7-4v-2h-3l-5-5-9-8-1-2-3-1-8-11-2-2v-3h-2l-2-3v-3h-2z" fill="#43B5FA"/>
<path transform="translate(1564,628)" d="m0 0 10 1 10 4 3 3-11 6h-2v2l-8 6-7 7-13 18-10 17-8 17-8 20-7 20-7 30-5 27-2 21v37l2 18 7 24 7 13 4 5v2h-11l-12-3-5-4-4-4-7-16-5-19-2-16v-43l2-21 5-29 6-24 6-19 7-19 8-18 10-19 11-16 12-14 11-9 9-4z" fill="#43B5FA"/>
<path transform="translate(1595,647)" d="m0 0h7l5 2 4 4 6 9 5 10 4 15 2 13 1 20v19l-3 29-1 5h-1v-36l-2-14-4-13-4-8v-2h-2l-4-5-8-4h-10l-9 4-6 4-5 4-10 13-6 9-8 18-3 7-1 4h-2l-1 8-5 17-5 23-1 11v39l3 16 5 12 9 10 7 3h10l12-6 9-8 9-12 8-14 1 3-10 20-9 14h-2v3h-2l-2 5h-2l-2 5-7 8-5 1v2l-12 7-11 1-6-4-5-5-8-14-3-15-2-8-1-8v-47l3-25 6-28 8-28 4-11 9-21 12-23 7-10 9-11 9-9 10-6z" fill="#43B3F9"/>
<path transform="translate(1368,1428)" d="m0 0h2l-3 14-10 28-11 25-10 18-10 14-11 13-8 7-3 2h-11l-6-4-8-11-8-16-10-21-10-13-9-10-11-9v-2l31-2 13-1 24-4 21-5 23-8 19-10 4-3h2z" fill="#C8DEF6"/>
<path transform="translate(1231,318)" d="m0 0 27 3 21 5 9 3 13 4 16 6 8 4v2h3v3l-15 1-29 5-25 6-20 6-15 5-11 4-11 5-6 1v2l-8 3-17 8h-3l-1 3-16 5-28 6-27 4-24 2h-28l-27-3-17-4-17-6-15-8-9-6-3-3 1-5 3-3v3l6 2 10 4 16 5 24 5 20 2h30l22-2 24-4 27-7 21-7 25-10 7-4 10-4 16-9 12-8h2v-2h2l2-4 2-6-2-6-2-3-4-2z" fill="#3B9CEF"/>
<path transform="translate(964,1172)" d="m0 0h21l17 4 16 6 15 7 1 2 5 3 10 7 10 9 9 9 8 10v3h2l9 15 8 17 6 19 4 21 1 10v25l-1 1-11-1-11-4-11-6-6-9-4-10-5-20-5-16-6-20-6-13-6-10-4-5v-2h-2l-4-5-14-14-10-7v-2l-5-2-19-12-13-8z" fill="#43B5FA"/>
<path transform="translate(1496,1165)" d="m0 0h1v40l-1 22-4 26-3 17-9 28-7 16-10 17-10 13-12 13-14 11-15 9-16 7h-1l1-11v-13l-2-14-4-12-7-16-9-14-1-2 7 2 9 4 13 3h17l9-3 10-5 8-7h2l2-4 9-10 6-10h2l2-6 8-16 7-18 8-30 3-17z" fill="#C8DEF6"/>
<path transform="translate(1341,1050)" d="m0 0h4l-2 4-10 15-8 16-7 19-4 16-2 16v24l4 23 6 18 5 10-2 5-6 7-8 7-11 8h-2l2-22 2-16 1-16v-49l-3-16-6-12-8-10-14-10-14-6-21-5-13-2h-8l-4 2-1 2-3-1 4-5 8-7 27-2 33-4 26-3z" fill="#C8DEF6"/>
<path transform="translate(557,1160)" d="m0 0 12 1v2l6 2 12 11 8 14 4 13 1 5v16l-3 12-5 10h-2v2l-10 6-3 1h-10l-10-4-5-3-7-8-8-13-4-11-2-14v-13l3-11h2l2-5 1-3h2l1-4 10-5z" fill="#FCFCFC"/>
<path transform="translate(553,1383)" d="m0 0h7l8 6 5 9 3 10 2 17 3 10 2 2h5l1-1 1-17 4-16 3-5 5-4h7l6 4 3 4 3 11 2 13 6 15 6 12-7 8-8 4h-11l-10-4-8-5h-8l-7 5-3 1h-11l-9-6-8-11-4-10-3-14v-17l3-12 5-6z" fill="#C5DDF5"/>
<path transform="translate(1438,1028)" d="m0 0h7l11 5 12 8v2l4 2 6 7-1 2-6-5-13-5-6-1h-16l-12 3-13 5-14 8-13 10-9 8-10 14-5 8-5 13-4 17-3 23-2 15-3 15-4 10h-3l-4-12-2-10-1-10v-24l3-19 5-17 5-12 9-16 9-12 9-10 8-7 33-7 24-7z" fill="#ADDEF8"/>
<path transform="translate(1023,1161)" d="m0 0h12l10 2 17 6 32 12 29 11 15 6 17 6 35 14 16 6 28 11 20 8 16 6 22 9 17 10 11 8 13 10 12 11 7 7 10 13 9 15 4 10 1 8-3-4-9-16-18-21-10-8v-2l-4-2-10-8-18-12-14-8-46-18-26-10-85-33-42-16-38-14-15-5-8-1-13-6-3-1v-2z" fill="#ADDDF7"/>
<path transform="translate(1595,647)" d="m0 0h7l5 2 4 4 6 9 5 10 4 15 2 13 1 20v19l-3 29-1 5h-1v-36l-2-14-4-13-4-8v-2h-2l-4-5-8-4h-10l-9 4-6 4-5 4-10 13-6 9-7 14-4-5-6-11 1-6 11-23 6-10 8-12 12-13 7-6 10-5z" fill="#43B4FA"/>
<path transform="translate(957,1411)" d="m0 0h8l6 8 5 5v2l-10 5-14 6-20 8-34 12-18 5-21 6-19 4h-28l-6-1 6-7 4-4 4-8h18l18-6 30-11 16-6 20-7 15-6 4-4z" fill="#C7D0E1"/>
<path transform="translate(1068,1345)" d="m0 0 6 2 16 6 6 1-2 4-10 14-12 13-9 9-12 9-16 9-14 5-5 1h-15l-10-4-8-6-6-10-1-3v-9l2-10 2-6 2 1 3 9 7 6 8 4 13 3h19l11-4 6-5h2l2-4 7-10 5-14 2-10z" fill="#C6DDF5"/>
<path transform="translate(1589,732)" d="m0 0h7l3 1 2 10v19l-3 24-4 16-5 16-5 12-5 11-2-1-9-40-8-37v-5l6-10h2l2-5 8-7 6-3z" fill="#657A9C"/>
<path transform="translate(1564,628)" d="m0 0 10 1 10 4 3 3-11 6h-2v2l-8 6-7 7-13 18-10 17-8 17-1 3-4 1-19-5-3-1 1-5 11-23 10-16 10-13 9-10 11-8z" fill="#AEDFF8"/>
<path transform="translate(820,998)" d="m0 0 6 2 4 3-2 6h-2l-1 4-9 15-8 16-9 20-12 36-6 22-5 24-1 6h-2l-2-20v-29l2-19 5-20 7-19 9-17 10-14 11-12z" fill="#42B3F9"/>
<path transform="translate(953,1050)" d="m0 0 8 1 18 3 16 3 27 4 28 3 26 2 26 1-3 3-10 4-13 4-17 3h-30l-21-3-5 1-3 4-18-5-10-5 1-8-13-8-7-6z" fill="#F5F8FA"/>
<path transform="translate(881,1239)" d="m0 0h1l-1 8-4 8-5 19-2 14 1 16 3 9 4 7 6 3h4l2-2v2l4-1-2 6-5 11-4 14-1 9-6-1-9-6-5-5-6-8-4-12-1-7v-17l4-18 9-21 10-18z" fill="#C7DDF5"/>
<path transform="translate(553,1383)" d="m0 0h7l8 6 5 9 3 10v16l-3 16-4 8-7 4-9-1-8-6-4-10-3-14v-17l3-12 5-6z" fill="#F8FAFB"/>
<path transform="translate(849,1254)" d="m0 0h2l-2 5-7 16-5 16-3 19v19l-24-6-8-43-3-11v-4h14l24-7z" fill="#F8F9FB"/>
<path transform="translate(1553,772)" d="m0 0 2 4 8 36 7 31 1 9-9 10-4 3-6 2-6-1-6-5-3-6-1-7v-29l5-16 10-26z" fill="#657A9C"/>
<path transform="translate(907,1330)" d="m0 0 2 2 3 12 3 5v3h2l3 4v2h2v2l16 8 3 1h13l12-3-1 6-3 7-2 14-1 1-8 1h-17l-11-3-8-4-8-8-8-14v-13l4-15z" fill="#C7DDF5"/>
<path transform="translate(1496,832)" d="m0 0 2 4 1 28 2 18 7 24 7 13 4 5v2h-11l-12-3-5-4-4-4-7-16-5-19-2-16v-16h23z" fill="#3B9CEF"/>
<path transform="translate(957,1411)" d="m0 0h8l6 8 5 5v2l-10 5-14 6-20 8-34 12-18 5-21 6-19 4h-28l-6-1 6-7 4-2v2h13l25-5 24-7 40-13 30-10v-2l4-4 2-4 1-7z" fill="#A3B5CF"/>
<path transform="translate(804,1204)" d="m0 0 2 2v8l2 6 12 3h12l22-3 25-5 3 1-7 7-7 6-18 7-34 11-4 1h-9l-8-7-4-7v-11l5-10z" fill="#C7DEF5"/>
<path transform="translate(1339,1094)" d="m0 0h1l3 9 1 1 9-1 4-3h2l-1 5-3 7-4 17-3 23-2 15-3 15-4 10h-3l-4-12-2-10-1-10v-24l3-19 5-17z" fill="#42B3F9"/>
<path transform="translate(1575,659)" d="m0 0 2 1 3 28v7l-10 8-10 13-6 9-7 14-4-5-6-11 1-6 11-23 6-10 8-12z" fill="#AEDEF8"/>
<path transform="translate(814,1342)" d="m0 0 9 2 15 4 3 1 7 11 9 9 13 8 15 5 5 2 6 10-6-1-21-6-51-14-1-1-3-22z" fill="#C6D1E2"/>
<path transform="translate(602,1394)" d="m0 0h7l6 4 3 4 3 11 1 7v8l-4 12-5 6-5 2-8-1-6-4-5-5 1-19 4-16 3-5z" fill="#F8F9FB"/>
<path transform="translate(1609,741)" d="m0 0 3 3v2h2l2 3v11l-3 26-5 23-8 24-7 16-11 18-9 10-9 6-9 2-6-3-2-4h-2l-1-3 12-1 10-5 11-11 11-18 8-19 5-15 5-22 2-14z" fill="#63799C"/>
<path transform="translate(442,1368)" d="m0 0 6 4v2h2v2l4 2 9 6 14 7 24 6v4l-4 10-1 6-19-2-13-2-6-4-3-4-5-13-7-18z" fill="#A4B6CE"/>
<path transform="translate(771,1033)" d="m0 0v3l-7 18-6 20-3 18-2 25-2-2-8-21-7-17-3-6 2-4 17-17h2l2-4 11-10z" fill="#F5F7FA"/>
<path transform="translate(1578,708)" d="m0 0h9l6 5 5 11 2 11-1-2h-10l-9 3-6 4-6 8h-2l-2 6-4 6h-1l-3-14v-6l8-15 9-12z" fill="#064896"/>
<path transform="translate(866,1398)" d="m0 0 8 1 22 6 15 4v2l-15 5-13 5-8-1-22-6-9-3 1-2 11-6z" fill="#C4D0E2"/>
<path transform="translate(1600,853)" d="m0 0 1 3-10 20-9 14h-2v3h-2l-2 5h-2l-2 5-7 8-5 1v2l-12 7-11 1-6-4-5-5-8-14-2-9v-6l2 1 5 9 2 4h2l5 5 5 3 5 2h11l10-5 5-4 2-3h3v-2l5-5 4-5v-3l4-6 8-11z" fill="#3A9BEE"/>
<path transform="translate(1438,1028)" d="m0 0h7l11 5 12 8v2l4 2 6 7-1 2-6-5-13-5-6-1h-16l-12 3-9 2v-13l9-3z" fill="#42B1F8"/>
<path transform="translate(896,640)" d="m0 0 4 5 7 16 7 21 9 36 4 20v11l-6 5-23 4h-8l-5-3-4-16v-3h4v9l1 1v6l8 1 2 1 14-2 2-1 3-9h3l1 3 3-1-1-12-1-16-2-1v-11h-2l-1-9-1-1v-6h-2v-8h-2v-2h-2l-2-6v-7h-2l-2-9h-2l-1-7-2-3h-1z" fill="#42B4FA"/>
<path transform="translate(821,1416)" d="m0 0 17 4 18 5 6 2-2 2-24 9h-8l-7-2z" fill="#C2CEE1"/>
<path transform="translate(552,1155)" d="m0 0h8l10 4 5 5-6-1v-2h-12l-9 3-3 2h-3l-1 4h-2l-1 5-2 3h-2l-1 9-1 2v13l2 14 4 11-1 3-6-12-4-16v-18l4-13 6-8 7-6z" fill="#ACBBD2"/>
<path transform="translate(519,1407)" d="m0 0h2l1 17 5 21 6 12-1 3h-5l-8-9-3-5-4-14v-12l4-11z" fill="#E7EEF6"/>
<path transform="translate(1152,478)" d="m0 0h11l37 8 12 4v3l-4 2v-2l-7-1-9-3-6 3-2 2-16-1-4-2 2-3 3-1-9-4-8-1v3l-3 1-1 2-4 1-2 2v-3l5-6z" fill="#062468"/>
<path transform="translate(1564,628)" d="m0 0 10 1 10 4 3 3-11 6h-2v2l-5 3-5-1-13-6-5-2 5-5 9-4z" fill="#42B4FA"/>
<path transform="translate(819,1384)" d="m0 0 24 6 8 3-3 3-18 10-3 1-7-2-1-7z" fill="#C2D0E4"/>
<path transform="translate(1236,731)" d="m0 0 2 3 8 28 1 6-3 6-7 3-23 6-6-1-5-6-6-21 1-4 2 1 1 9 4 4h1l2 9v4h4v2l4-2h6v-2h2l1-5 5-2 3 3-1 2 6-1v-2h2l1-11-1-2-1-10-3-6-1-9z" fill="#42B3F9"/>
<path transform="translate(1591,699)" d="m0 0h7l6 4 4 5 5 12 2 8 1 9v12l-2-1v-2h-2l-2-4-2 1-2-16-5-14-6-8-6-4z" fill="#064896"/>
<path transform="translate(1550,755)" d="m0 0h1l3 13-1 8-4 8-9 24-3 11-1-4 2-17 7-30z" fill="#064896"/>
<path transform="translate(915,500)" d="m0 0h1l1 18 8 7 6 4-3 4h-6l-1-2h-14l-10-2-5-6 16-2 1-2 5-1z" fill="#094995"/>
<path transform="translate(1119,709)" d="m0 0 3 1v2h-2l-2 6h-2v8h-2l-2 4-3 12-4 2v12h7v2l4 1 8 4h4v2h9v-5l1 3h2v-3h2v-2h3l-2 6-4 5-2 1-9-1-23-10-4-5v-7l14-31z" fill="#42B2F9"/>
<path transform="translate(783,726)" d="m0 0h1v6h6v2h2v2l-1 1 2 2 4 1v2l5 1 4 4h13l1-3h2v-4h2l1-5 3-5h2l1-2 1 3-9 16-4 5-9 1-17-9-8-4-3-4v-8z" fill="#42B2F9"/>
<path transform="translate(1487,909)" d="m0 0 5 1 16 5 6 2 5 7v2h-11l-12-3-5-4-3-4z" fill="#43B6FB"/>
<path transform="translate(1268,509)" d="m0 0 6 1 16 6 15 6 15 7 8 4v3h-9l-5-3-2-2v-3l-9 1-1-2-6-2v-2l-10-4-2-2h-4l-2-1-1 2-4-2v-2l-5-2z" fill="#09296D"/>
<path transform="translate(917,530)" d="m0 0 5 1v2l7-2 4-1 11 6 1 5h-2v2h-4v2h-3v-2l-2-1 2-4-1-3h-2l1 5h-2v2h-4v-4h-10l-2-1v-2l-8-2v-2z" fill="#063279"/>
<path transform="translate(896,640)" d="m0 0 4 5 7 16 7 21 8 32v3l-4-2v-11h-2l-1-9-1-1v-6h-2v-8h-2v-2h-2l-2-6v-7h-2l-2-9h-2l-1-7-2-3h-1z" fill="#42B2F9"/>
<path transform="translate(809,680)" d="m0 0h1v8l-4 1 2 1-2 5-4 3h-2v6h-2l-2 7-2 3h-2v4h-2l1 4-3 5-4-1 2-6 13-23z" fill="#42B3F9"/>
<path transform="translate(1168,538)" d="m0 0 3 1-3 5-3 1-20 1-9 1 1-2 6-3 1-3h7l3 2 13-2z" fill="#064896"/>
<path transform="translate(1152,478)" d="m0 0h11l10 2v3h-2v2l-8-1-11-2v3l-3 1-1 2-4 1-2 2v-3l5-6z" fill="#09296D"/>
<path transform="translate(1132,1440)" d="m0 0 36 4 28 2-1 2h-13l-1-1h-13l-16-2-22-1 3-2z" fill="#06367F"/>
<path transform="translate(1041,566)" d="m0 0h6l3 3 1 2h9l-2 2-3 1h-29l-2-1v-2h13l2-4z" fill="#064896"/>
<path transform="translate(1183,537)" d="m0 0 4 1-2 1 9 2 3 1 2-1 4 2 13 2v2h-21l-11-3-3-6z" fill="#064896"/>
<path transform="translate(1628,720)" d="m0 0h1v19l-3 29-1 5h-1v-43l2-2v2h2z" fill="#4198E4"/>
<path transform="translate(1230,496)" d="m0 0 7 1 27 9 2 1v3l-5 1-5-1-2-4-3-1v-2l-4 1-3-2-3 1v-2l-9-1v-2h-2z" fill="#06276C"/>
<path transform="translate(881,736)" d="m0 0h4v9l1 1v6l8 1 2 1h10v2l-8 2h-8l-5-3-4-16z" fill="#42B2F9"/>
<path transform="translate(1174,704)" d="m0 0 4 1 2 5v5l-2-3 1 5h-10v-4l2-2-2-1 2-5z" fill="#3695E8"/>
<path transform="translate(1579,655)" d="m0 0 2 1-1 4h-2l2 4 1 19 1 7h8l-3 2-7 3-4-36z" fill="#3D9DED"/>
<path transform="translate(1600,853)" d="m0 0 1 3-10 20-6 9-3-1v-3l4-6 8-11z" fill="#409AE7"/>
<path transform="translate(1255,858)" d="m0 0 2 1-2 4h8l1-2v3h-21l-3 5h-8l2-5 5-2 16-2z" fill="#064896"/>
<path transform="translate(1114,1200)" d="m0 0 40 15-2 2-10-3v-2h-6v-2h-8v-2l-14-4v-2l-2-1z" fill="#3B9FF1"/>
<path transform="translate(1331,1123)" d="m0 0 2 2-1 24h-2l1 10 1 4-1 7h-1l-1-10v-24z" fill="#3B9FF1"/>
<path transform="translate(1072,1185)" d="m0 0 6 1 34 13v1h-8v-2h-5l-5-3-4-1v-2h-6l-6-3-6-1z" fill="#3CA0F1"/>
<path transform="translate(1049,886)" d="m0 0h1v5l3 1-2 1v3l-3 2-5 5-4 2-2 3-3-1 1-2h2v-2h2l2-5 6-8z" fill="#0A387F"/>
<path transform="translate(1192,485)" d="m0 0 11 2 9 3v3l-4 2v-2l-7-1-10-4-1-2z" fill="#07286C"/>
<path transform="translate(1185,644)" d="m0 0 6 1 8 6 6 6v2h2l3 5v2l-4-2-4-4v-4l-5-2-3-2v-2l-4-1-3-2v-2z" fill="#41B0F8"/>
<path transform="translate(933,532)" d="m0 0 5 1 6 3 1 5h-2v2h-4v2h-3v-2l-2-1 2-4-1-3h-2z" fill="#0B3A80"/>
<path transform="translate(1268,509)" d="m0 0 6 1 14 5v2l-7 1-3-2-1 2-4-2v-2l-5-2z" fill="#07286C"/>
<path transform="translate(1120,1297)" d="m0 0 2 3 2 4v42l-2 4-1-4v-38z" fill="#3B9DF0"/>
<path transform="translate(1332,1297)" d="m0 0 4 2v2l4 2 9 8 7 8 3 5h-3v-2h-2l-2-4-5-5-3-2-1-2-3-1v-2h-2l-4-4v-2h-2z" fill="#3B9DF0"/>
<path transform="translate(1491,914)" d="m0 0 1 2h2l1 4h3v2h5l1 1 10 1 1-4 4 4v2h-11l-12-3-5-4-1-3z" fill="#3E9BEA"/>
<path transform="translate(1332,764)" d="m0 0 2 4 1 5-2 3-4 2-3 6-1-2 2-11 4-5z" fill="#064896"/>
<path transform="translate(871,624)" d="m0 0 9 1 9 6 5 5-1 3-5-5v-2h-2v-2h-6l-7-2v-2h-2z" fill="#41B1F9"/>
<path transform="translate(1016,1089)" d="m0 0 16 2 32 1v1l-32 1-2-1h-12v-2h-2z" fill="#3CA0F1"/>
<path transform="translate(808,523)" d="m0 0h8v7l-13 2v-2l3-1z" fill="#064896"/>
<path transform="translate(1377,1349)" d="m0 0 3 1v35h-3l-1 2 2-14v-13z" fill="#08377F"/>
<path transform="translate(796,476)" d="m0 0 2 2v5h-2l-1 5h-4v2l-6 4-2-1 4-4h2l2-5z" fill="#0F3B81"/>
<path transform="translate(1327,639)" d="m0 0 4 1 1 7 3 9-1 4-4-5-3-14z" fill="#064896"/>
<path transform="translate(1104,410)" d="m0 0h5l-2 2h-3v2h-32v-1z" fill="#124288"/>
<path transform="translate(971,1178)" d="m0 0 7 1 4 3v2l5 1 5 3v2h2v2l3 1-2 1-19-12-5-3z" fill="#3E9EEC"/>
<path transform="translate(1032,1172)" d="m0 0 10 1 6 2-2 1 3 3 4 2-1 3-11-6-9-5z" fill="#3F9BE8"/>
<path transform="translate(861,624)" d="m0 0h5l-5 5-7 3-7 1 5-5z" fill="#41B1F9"/>
<path transform="translate(1024,912)" d="m0 0 2 1v3l-9 3h-21l-2-3h17l9-2z" fill="#0F4085"/>
<path transform="translate(963,888)" d="m0 0 3 4 3 5 5 7 2 1v2l2 1-7-1-3-5v-2h-2v-4h-2l-2-6z" fill="#0A377E"/>
<path transform="translate(1105,1314)" d="m0 0h1v25l-1 1-11-1-4-2v-1h7l7 2z" fill="#3C9BED"/>
<path transform="translate(911,1039)" d="m0 0 9 2 8 2v1h-11l3 5-1 3-3-3v-3h-2z" fill="#3DA4F3"/>
<path transform="translate(1436,1042)" d="m0 0h16l12 3-3 1h-5v-1h-24v-2z" fill="#093880"/>
<path transform="translate(1098,552)" d="m0 0 6 1 1 2-4 5h-7l3-7z" fill="#064896"/>
<path transform="translate(1312,613)" d="m0 0 3 1v2h2l1 6 5 2v3l-7-2-2-2z" fill="#064896"/>
<path transform="translate(1296,1272)" d="m0 0 11 6 12 8 1 2h-4v-2l-6-2v-2h-2v-2l-4-1-8-4z" fill="#3CA0F1"/>
<path transform="translate(1465,1040)" d="m0 0 3 1v2l4 2 6 7-1 2-6-5-9-4z" fill="#3E9AE9"/>
<path transform="translate(1119,709)" d="m0 0 3 1v2h-2l-2 6h-2v8h-2l-1 2-3 1 2-6z" fill="#40AEF7"/>
<path transform="translate(1014,410)" d="m0 0 30 3v1h-20-3l-7-1z" fill="#0C3F87"/>
<path transform="translate(773,832)" d="m0 0 10 2 3 4 1 6-4-2-1-4-6-1z" fill="#064896"/>
<path transform="translate(1486,742)" d="m0 0h2l-4 18-3 11h-1v-10l3-7 1-10h2z" fill="#093980"/>
<path transform="translate(1626,692)" d="m0 0 4 4v32h-1l-1-8-1-20z" fill="#1D4B8C"/>
<path transform="translate(914,519)" d="m0 0 5 1 7 6-1 2-6-2-3-2-4 3z" fill="#083177"/>
<path transform="translate(1132,1440)" d="m0 0 18 2 6 1v1l-12 1-14-1 3-2z" fill="#124286"/>
<path transform="translate(1080,320)" d="m0 0 4 1-6 3-14 1-2 1h-8l4-2z" fill="#3D9DED"/>
<path transform="translate(1284,1440)" d="m0 0h7l-1 2h-2v2h-21v-1z" fill="#0F3D82"/>
<path transform="translate(1184,1227)" d="m0 0 22 8-1 2-9-1v-2h-2v-2h-6l-4-2z" fill="#3B9FF1"/>
<path transform="translate(1228,707)" d="m0 0 2 3 6 18-1 4h-1v-6h-2l-1-6-3-2-1-9z" fill="#41AFF8"/>
<path transform="translate(982,1078)" d="m0 0 6 1 12 3 2-1-1 6-3-1v-2l-12-2v-2h-4z" fill="#3B9CEE"/>
<path transform="translate(1008,1110)" d="m0 0h7l20 3v1l-11 1-8-1v-2h-8z" fill="#093B83"/>
<path transform="translate(1128,1068)" d="m0 0h40l-4 2-34-1v2l-3 1v-3z" fill="#3C9CEE"/>
<path transform="translate(864,679)" d="m0 0h2l2 5v5l-3 3-1-5-2 2-2-2h2l-1-4z" fill="#145EAD"/>
<path transform="translate(922,526)" d="m0 0h4l5 3-3 4h-6l-1-5z" fill="#0D4087"/>
<path transform="translate(1051,323)" d="m0 0m-3 1 6 1-4 2-19 5-3-1 3-2 2-1h7v-2h6z" fill="#0C3C83"/>
<path transform="translate(879,1387)" d="m0 0 9 2 3-2 5 7-6-1-11-3z" fill="#AFCAE7"/>
<path transform="translate(725,867)" d="m0 0h1l2 8v14l-2-3-2-7v-9z" fill="#1D559C"/>
<path transform="translate(805,848)" d="m0 0 9 1 3 5-6 1-5-5z" fill="#064896"/>
<path transform="translate(730,848)" d="m0 0h4l1 10 1 3-4-1v-2h-2z" fill="#072367"/>
<path transform="translate(1511,836)" d="m0 0h1l1 38-1-4h-2z" fill="#29538F"/>
<path transform="translate(1500,707)" d="m0 0 7 1 11 3v1h-8l-2-1h-6l-2 1v2h-2l1-5z" fill="#3D9CEC"/>
<path transform="translate(1210,666)" d="m0 0 4 5 4 10-4-1-3-3-1-3z" fill="#41B1F8"/>
<path transform="translate(1256,1256)" d="m0 0 6 1 15 6v1h-7v-2h-6v-2l-5-1-3-1z" fill="#3B9FF1"/>
<path transform="translate(1109,864)" d="m0 0 10 2 5 5-8-1-4-1z" fill="#064896"/>
<path transform="translate(1220,316)" d="m0 0h22l4 4-10-1-16-2z" fill="#0C3E85"/>
<path transform="translate(921,1464)" d="m0 0h7l-3 2-15 5h-2v-2l-2-1 14-3z" fill="#06347C"/>
<path transform="translate(1058,560)" d="m0 0h14l2 3-9 1-1 3v-5h-5z" fill="#064896"/>
<path transform="translate(1094,1434)" d="m0 0 16 2 2 2-10 1-7-2z" fill="#0C3A80"/>
<path transform="translate(1600,853)" d="m0 0 1 3-8 16-4 1 2-5 8-13z" fill="#4C8CC9"/>
<path transform="translate(1479,776)" d="m0 0h1v14l-2 10h-2v-7z" fill="#3D9DEC"/>
<path transform="translate(1505,695)" d="m0 0 4 1-1 6 2 1-2 2h-4v-7z" fill="#BCDEF7"/>
<path transform="translate(818,1368)" d="m0 0h3v4l3-1 5 1 3 1v3l-11-2-4-2z" fill="#AFCCE9"/>
<path transform="translate(1049,1177)" d="m0 0 7 1 14 5v1h-8v-2h-6v-2h-4v-2z" fill="#3B9FF1"/>
<path transform="translate(1564,628)" d="m0 0 10 1 5 2v1h-9v-1h-8l-1 1h-5l1-2z" fill="#3C9CEE"/>
<path transform="translate(755,1022)" d="m0 0 3 1-7 6-1 2-5 3-3 3-2-1 9-9z" fill="#3262A1"/>
<path transform="translate(1476,784)" d="m0 0h2l-1 9-2 15h-1v-16h2l-1-6z" fill="#0D3E85"/>
<path transform="translate(1236,731)" d="m0 0 2 3 3 10v3l-3-1-2-4-1-9z" fill="#41B1F9"/>
<path transform="translate(940,1076)" d="m0 0h4v2h2v2l6 1 4 4-5 1v-2h-3l-5-5z" fill="#3C9AE7"/>
<path transform="translate(809,680)" d="m0 0h1v8l-4 1 2 1-1 3-5 1 2-5z" fill="#41AFF8"/>
<path transform="translate(1099,1451)" d="m0 0 12 1 4 4-8-1-10-2z" fill="#0D3D83"/>
<path transform="translate(1112,1362)" d="m0 0 1 2-1 4-3 2-1 4-4 2v4l-3-1 2-4z" fill="#419BE6"/>
<path transform="translate(1117,1104)" d="m0 0 3 1v2l-10 3-8-1v-1l12-3z" fill="#0D3A80"/>
<path transform="translate(881,736)" d="m0 0h4v9l1 1v6l-2 1-3-14z" fill="#41AFF8"/>
<path transform="translate(858,688)" d="m0 0 2 1-1 4h-2l1 2 2 1v2l-5 1-1-1v-5l2-3h2z" fill="#267CCD"/>
<path transform="translate(1163,647)" d="m0 0 2 1-1 2h-2v2l-5 2-6 7-1 2-2-2 7-8z" fill="#40ACF6"/>
<path transform="translate(896,640)" d="m0 0 4 5 4 10-4 1-1-7-2-3h-1z" fill="#40ADF7"/>
<path transform="translate(1097,1266)" d="m0 0 1 4h2l2 6v6l-2 1-4-13z" fill="#06357D"/>
<path transform="translate(773,1136)" d="m0 0h1l2 6-1 10h-2l-1-13z" fill="#4098E5"/>
<path transform="translate(1127,1066)" d="m0 0h9v2l-8 1-5 4-3 1 1-3h2l1-3z" fill="#06327A"/>
<path transform="translate(1554,640)" d="m0 0h6v2h4v2h6l1 2-5 1-12-6z" fill="#3B9FF0"/>
<path transform="translate(1321,531)" d="m0 0 6 1 2 3-1 1h-9l-3-2 4-1z" fill="#0B296C"/>
<path transform="translate(1158,1459)" d="m0 0 10 1 1 2h-15l-6-1v-1z" fill="#154386"/>
<path transform="translate(1083,1450)" d="m0 0 10 1 7 2v1h-10l-6-2h-6v-1z" fill="#3E9BE9"/>
<path transform="translate(995,1435)" d="m0 0h24v1l-19 1-1 1h-7z" fill="#4299E3"/>
<path transform="translate(1514,882)" d="m0 0 2 2 2 8v4l-3-1-2-5z" fill="#103D82"/>
<path transform="translate(1547,698)" d="m0 0 2 4-4 5-2 8-4 1 2-6z" fill="#9ECEF2"/>
<path transform="translate(789,1091)" d="m0 0 2 4-2 3-1 10h-2l-2 2 1-6z" fill="#0B3B82"/>
<path transform="translate(1544,725)" d="m0 0 4 1 1 4 2-2-1 6-3 1-1-4-2-1z" fill="#C0DCF6"/>
<path transform="translate(1212,490)" d="m0 0 13 3-1 2-3-1h-6l-3 1-2-4z" fill="#0D3074"/>
<path transform="translate(1058,1295)" d="m0 0 2 3 4 16-4-2-1-7-1-1z" fill="#0B3A81"/>
<path transform="translate(1336,1229)" d="m0 0 3 1-10 9v-3zm-9 10m-2 1h2v2l-4 3v-3z" fill="#CADEF2"/>
<path transform="translate(1011,1107)" d="m0 0 5 2 8 1v2l-9-1-11-2v-1z" fill="#3D9BEB"/>
<path transform="translate(860,683)" d="m0 0 2 4 2 1-1 5-2 1v-2l-2-1-1-1-2-1z" fill="#399AED"/>
<path transform="translate(831,649)" d="m0 0 1 4-6 8-4 1 4-7z" fill="#41B2F8"/>
<path transform="translate(1599,621)" d="m0 0 5 2 8 6h-3l-4-1 1-2h-2l-1 2v-2l-3-1z" fill="#2D63A5"/>
<path transform="translate(758,541)" d="m0 0 1 4 2 1v2h-2l-1 2-6 8 1-5z" fill="#2D71B7"/>
<path transform="translate(1339,1094)" d="m0 0h1l3 10h-5v2h-2l1-6z" fill="#3C9DEE"/>
<path transform="translate(1570,664)" d="m0 0 2 1-6 8-2 4-4-1z" fill="#9CC5E7"/>
<path transform="translate(1555,646)" d="m0 0 7 1v2l3 1-3 3-1-3h-5z" fill="#C7DEF6"/>
<path transform="translate(976,554)" d="m0 0h8l2 4-1 3-9-5z" fill="#064896"/>
<path transform="translate(1142,486)" d="m0 0 2 1-2 4-6 3-4 5-2-1 2-4z" fill="#194284"/>
<path transform="translate(838,417)" d="m0 0 1 4-5 5h-2v4l-5 2 2-4z" fill="#3E67A0"/>
<path transform="translate(778,1130)" d="m0 0 2 4 1 3-1 5h-2v2h-2l1-8z" fill="#0E3B80"/>
<path transform="translate(1332,1110)" d="m0 0h2l-3 17-2-3 1-10h2z" fill="#08387F"/>
<path transform="translate(1474,873)" d="m0 0h1l3 15v4l-2-1-2-4z" fill="#083982"/>
<path transform="translate(1271,845)" d="m0 0 1 2-3 3-5 3-4-1 7-6z" fill="#064896"/>
<path transform="translate(789,718)" d="m0 0 2 4-3 5-4-1 2-6z" fill="#42B3FA"/>
<path transform="translate(1280,1265)" d="m0 0 10 3 5 3-4 1-5-2v-2h-6z" fill="#3B9DF0"/>
<path transform="translate(1129,1098)" d="m0 0h7l-3 2-11 4-2-1v-3z" fill="#3B9EF0"/>
<path transform="translate(772,1080)" d="m0 0h2l-2 23h-1l-1-15h1z" fill="#124287"/>
<path transform="translate(1515,920)" d="m0 0 4 4v2h-11v-2h6z" fill="#3F9BE8"/>
<path transform="translate(991,913)" d="m0 0 10 1 1 1 9 1v1h-12l-9-2z" fill="#3B9DF0"/>
<path transform="translate(904,848)" d="m0 0 3 1-3 4h-8v-2z" fill="#064896"/>
<path transform="translate(1590,690)" d="m0 0h10l2 2-5 1h-7l-3-2z" fill="#124185"/>
<path transform="translate(913,682)" d="m0 0 2 4 3 13-3-1-1-10h-2z" fill="#40ADF7"/>
<path transform="translate(528,1377)" d="m0 0 1 2-5 10h-4v-2l3-3 2-4z" fill="#AACEF1"/>
<path transform="translate(1090,1067)" d="m0 0h12l-3 3-6 2-1-3z" fill="#BAC8DB"/>
<path transform="translate(903,655)" d="m0 0 3 3 2 8-4-1-2-9z" fill="#41B1F8"/>
<path transform="translate(1110,513)" d="m0 0m-2 1 2 1 1 3-4 1-3-1zm-6 5 2 1-3 3-2-1zm-5 4 2 1h-3z" fill="#163676"/>
<path transform="translate(1146,402)" d="m0 0 4 1-4 2-4 1h-9l3-2z" fill="#0F3F84"/>
<path transform="translate(1284,353)" d="m0 0h5l-1 3-10 1-3-2z" fill="#063680"/>
<path transform="translate(1115,1680)" d="m0 0 4 1h-2l-1 3h-12l4-2z" fill="#0C3D83"/>
<path transform="translate(1092,1260)" d="m0 0 3 4 3 11-2-1v-2h-2l-1-5h-1l-1-6z" fill="#3C9CED"/>
<path transform="translate(918,1052)" d="m0 0h2l3 5 4 6h-3l-3-3-1-3-2-1z" fill="#093880"/>
<path transform="translate(335,986)" d="m0 0 2 1-2 2 2 2-6 2-3 3h-2l2-4z" fill="#1F5398"/>
<path transform="translate(1555,687)" d="m0 0 3 1-3 6-5 1 1-4z" fill="#BEDFF6"/>
<path transform="translate(1230,496)" d="m0 0 7 1 4 2-1 2-8-1v-2h-2z" fill="#06256A"/>
<path transform="translate(870,387)" d="m0 0 2 1-10 10-3-1 7-7z" fill="#2E5C9B"/>
<path transform="translate(1261,304)" d="m0 0 10 1 6 2v1l-7 1v-2h-8z" fill="#296BB3"/>
<path transform="translate(987,1680)" d="m0 0 9 2 5 1v1h-15z" fill="#0F3E83"/>
<path transform="translate(840,1579)" d="m0 0 4 4 4 5-1 3-3-2v-2h-2l-2-4z" fill="#09377F"/>
<path transform="translate(1370,1340)" d="m0 0 3 4 2 3v5l-5-4-1-4z" fill="#3B9FF1"/>
<path transform="translate(1093,1338)" d="m0 0 13 1-1 5-2-2-9-1-3-2z" fill="#093980"/>
<path transform="translate(1358,1325)" d="m0 0 4 1 6 9-1 3-3-4v-2h-2l-2-6z" fill="#3B9DF0"/>
<path transform="translate(1513,679)" d="m0 0 1 4-3 6-2 5h-2l1-5z" fill="#A4CFF5"/>
<path transform="translate(796,485)" d="m0 0 2 1v4l-5 1-1 2v-2l-2-1 3-3h2z" fill="#062367"/>
<path transform="translate(977,336)" d="m0 0 2 1-4 2v2h-12l3-2z" fill="#2E64A5"/>
<path transform="translate(871,1482)" d="m0 0h3l-1 3-9 1-4-1z" fill="#3CA1F2"/>
<path transform="translate(1029,1430)" d="m0 0 9 2 2 4-9-3-3-2z" fill="#0C387D"/>
<path transform="translate(822,1424)" d="m0 0h1l1 10 4 1-1 2-5-1z" fill="#C0D8F2"/>
<path transform="translate(1320,1288)" d="m0 0 5 2 6 5-1 3v-2l-6-2v-2l-4-2z" fill="#3B9DF0"/>
<path transform="translate(1044,1198)" d="m0 0 5 3 7 6-3 1-5-4-4-4z" fill="#4198E4"/>
<path transform="translate(352,1074)" d="m0 0 3 4 1 6v6l-2-3-2-8z" fill="#C6D9EF"/>
<path transform="translate(971,1071)" d="m0 0 1 2 6 2 4 3-5-1-7-1v-2l-2-2z" fill="#4199E4"/>
<path transform="translate(553 1e3)" d="m0 0 10 2 4 2h-12l-3-2z" fill="#2764AA"/>
<path transform="translate(1526,742)" d="m0 0h3l-3 11-2 4-1-3z" fill="#06367F"/>
<path transform="translate(1150,743)" d="m0 0 2 1-4 9-2-1v-5z" fill="#41B0F8"/>
<path transform="translate(1553,632)" d="m0 0 2 1-2 3-1 3h-5v-3z" fill="#3F99E7"/>
<path transform="translate(793,481)" d="m0 0 1 2-3 7-6 4-2-1 4-4h2l2-5z" fill="#3B75B5"/>
<path transform="translate(986,352)" d="m0 0m-2 1h2l1 3-7 4-4-1z" fill="#4199E4"/>
<path transform="translate(876,1478)" d="m0 0h9l-2 2-12 2v-2z" fill="#093981"/>
<path transform="translate(1064,1216)" d="m0 0 5 5 5 6-2 1-4-4v-2h-2v-2h-2z" fill="#409AE7"/>
<path transform="translate(1014,1163)" d="m0 0 10 1v4l-10-3z" fill="#9BD0F4"/>
<path transform="translate(954,1087)" d="m0 0 11 6-2 2-8-4z" fill="#06337B"/>
<path transform="translate(797,1068)" d="m0 0 2 1-1 7h-2l-1 4-2-1z" fill="#06337C"/>
<path transform="translate(1184,1067)" d="m0 0h7l-5 5h-2v-2l-4-1h4z" fill="#4A90D1"/>
<path transform="translate(729,1047)" d="m0 0 1 4-4 4-4 2-2-1 5-5z" fill="#254C89"/>
<path transform="translate(932,1046)" d="m0 0 5 5 3 5-2 2-2-3v-3h-2v-2h-2v-2l-2-1z" fill="#409AE7"/>
<path transform="translate(1425,1042)" d="m0 0h11l-4 2-11 2z" fill="#3B9DF0"/>
<path transform="translate(1540,754)" d="m0 0 2 3-2 9-2 2-1-3z" fill="#09387F"/>
<path transform="translate(1517,735)" d="m0 0h1v10l-3 3-1-4z" fill="#09387F"/>
<path transform="translate(792,709)" d="m0 0 2 2v3h-2v4l-5 2 2-5z" fill="#41AFF8"/>
<path transform="translate(1516,706)" d="m0 0h6v2h2v2h-9z" fill="#CAE0F7"/>
<path transform="translate(1176,698)" d="m0 0 3 3v4l-6 1v-3z" fill="#074B99"/>
<path transform="translate(1173,643)" d="m0 0h12v1h-9v3l-7-2z" fill="#3FACF5"/>
<path transform="translate(1181,483)" d="m0 0h6l-2 3v3l-7-1 2-1z" fill="#062E74"/>
<path transform="translate(1244,1612)" d="m0 0v3l-2 3h-2l-2 4-3 1v-3l8-7z" fill="#093B83"/>
<path transform="translate(888,1474)" d="m0 0 8 1-4 2-7 1-2-2z" fill="#093980"/>
<path transform="translate(1048,1441)" d="m0 0h7l7 2v1l-7 1-7-3z" fill="#3DA3F2"/>
<path transform="translate(854,1426)" d="m0 0h6l2 2-8 3-1-4z" fill="#B1CFED"/>
<path transform="translate(814,1342)" d="m0 0 4 2h-2v14h-1z" fill="#9FC1E3"/>
<path transform="translate(1296,1272)" d="m0 0 11 6 1 2-4-1-8-4z" fill="#3B9FF0"/>
<path transform="translate(816,1023)" d="m0 0 1 3-4 7h-2l-1 2 1-4 1-3h2l1-4z" fill="#3CA0F1"/>
<path transform="translate(1536,721)" d="m0 0 3 4 1 4-2 1-1-2-2 2-1-4z" fill="#3E9AE9"/>
<path transform="translate(1516,675)" d="m0 0 1 2-2 8-3 4-2-1 3-5 2-7z" fill="#B7E0F8"/>
<path transform="translate(1104,410)" d="m0 0h5l-2 2h-3v2h-5v-2l-3-1z" fill="#063A84"/>
<path transform="translate(1256,360)" d="m0 0 5 1v1h-5v2h-10l2-2z" fill="#06357E"/>
<path transform="translate(1270,356)" d="m0 0 2 1v2l-2 1h-11l4-2z" fill="#06367F"/>
</svg>
